<?xml version="1.0" encoding="utf-8"?>
<!-- Generator: Adobe Illustrator 22.0.1, SVG Export Plug-In . SVG Version: 6.00 Build 0)  -->
<svg version="1.1" id="Layer_1" xmlns="http://www.w3.org/2000/svg" xmlns:xlink="http://www.w3.org/1999/xlink" x="0px" y="0px"
	 viewBox="0 0 381 498" style="enable-background:new 0 0 381 498;" xml:space="preserve">
<style type="text/css">
	.st0{opacity:0.33;fill:#FFFFFF;enable-background:new    ;}
	.st1{opacity:0.27;fill:#B5B5C9;enable-background:new    ;}
	.st2{opacity:0.17;fill:#B5B5C9;enable-background:new    ;}
	.st3{opacity:0.24;fill:#B5B5C9;enable-background:new    ;}
	.st4{opacity:0.21;fill:#B5B5C9;enable-background:new    ;}
</style>
<g>
	<path class="st0" d="M12.4,284.3c0-90.6,0-181.1,0-271.7c0-0.8,0.2-1,1-1c117.8,0,235.5,0,353.3,0c0.8,0,1,0.2,1,1
		c0,91.5,0,182.9,0,274.4c-0.1,0.3-0.2,0.5-0.2,0.8c-0.3,5.7-0.8,11.4-1.4,17.1c-2.8,23-9,45.1-19.4,65.9
		c-15,30-36.8,54.1-63.9,73.6c-24.7,17.8-51.9,30.5-80.6,40.3c-3.8,1.3-7.6,2.5-11.4,3.8c-0.3,0-0.7,0-1,0c-0.3-0.1-0.7-0.3-1-0.4
		c-26.9-8.3-52.7-19.2-76.7-34.1c-25.7-16-48-35.7-65.1-60.9c-21-30.3-31.4-64-34-100.4C12.8,289.9,12.9,287.1,12.4,284.3z
		 M23.1,22.4c-0.1,0.5-0.2,1-0.2,1.5c0,85.4,0,170.8,0,256.3c0,0.3,0,0.7,0,1c0.1,0,0.2,0,0.2,0c0-1.2,0-2.4,0-3.6
		c0.2,6.2,0.4,12.4,1,18.7c1.9,21.1,6.7,41.5,15.2,61c13.8,31.5,35.3,56.7,62.8,77c26.5,19.5,56.1,32.9,87.3,42.8
		c0.5,0.2,0.9,0.1,1.4-0.1c4.2-1.4,8.5-2.8,12.7-4.3c27.3-9.7,53.1-22.4,76.3-39.8c24.3-18.3,43.9-40.5,57.4-67.9
		c13.8-27.9,19.7-57.6,19.7-88.5c0.1-84.2,0-168.5,0-252.7c0-0.5,0-1-0.1-1.5c-0.6-0.4-1.2-0.3-1.8-0.3c-30.7,0-61.3,0-92,0
		c-79.4,0-158.7,0-238.1,0C24.3,22.1,23.7,21.9,23.1,22.4z"/>
	<path class="st1" d="M51.5,346.1c-4.3-10.4-7.4-21.2-9.6-32.3c-2.7-13.6-4-27.3-4-41.2c0-29.1,0-58.1,0-87.2c0-0.4,0-0.8,0-1.3
		c0.6,1.8,1.2,3.6,1.8,5.3c5.8,17.4,11.6,34.7,17.3,52.1c6.6,20,13.2,39.9,19.9,59.9c0.1,0.3,0.1,0.8,0.5,0.8
		c0.4,0.1,0.5-0.4,0.7-0.7c3.3-5.4,6.6-10.9,10-16.3c17.4-28.4,34.7-56.8,52.1-85.3c4-6.5,8-13.1,12-19.6c0.2-0.3,0.2-0.6,0.6-0.6
		c0.1,0,0.2,0.4,0.2,0.6c2.4,19.3,4.9,38.7,7.3,58c3,23.6,5.9,47.2,8.8,70.7c0.1,1,0.4,1.3,1.4,0.7c17.3-10,34.6-19.9,52-29.9
		c16.9-9.7,33.7-19.4,50.6-29.1c0.3-0.2,0.6-0.5,0.9-0.3c0.3,0.3,0,0.7-0.1,1c-2,6.1-4,12.2-6,18.3c-6.8,20.7-13.6,41.3-20.5,62
		c-5.7,17.2-11.4,34.4-17.1,51.7c-0.1,0.3-0.5,0.8-0.2,1.1c0.3,0.3,0.7-0.1,1-0.2c5.1-2.1,10.2-4.2,15.3-6.3
		c26.5-10.9,53-21.9,79.6-32.8c0.9-0.4,1.8-1,2.8-0.9c-5.7,14.7-13.3,28.3-22.8,40.8c-16.6,21.9-37.5,38.9-61.3,52.5
		c-11.9,6.8-24.4,12.6-37.2,17.5c-0.3,0.1-0.7,0.2-1,0.3c0.1-0.5,0.2-1,0.3-1.4c2.1-6.3,4.2-12.6,6.2-18.9
		c5.4-16.2,10.7-32.5,16.1-48.7c0.1-0.3,0.4-0.8,0.1-1.1c-0.3-0.3-0.7,0.1-1.1,0.2c-6.1,2.5-12.1,5-18.2,7.5
		c-9.3,3.8-18.6,7.7-27.9,11.5c-0.6,0.3-1.2,0.6-1.4-0.6c-1.5-12.4-3.1-24.9-4.6-37.3c-2.3-18.3-4.6-36.5-6.9-54.8
		c-0.1-0.9-0.4-1.2-1.3-0.7c-5.6,3.2-11.2,6.5-16.8,9.7c-18.5,10.6-37.1,21.3-55.6,32c-1.2,0.7-1.6,0.6-2.1-0.8
		c-5.2-15.8-10.4-31.5-15.7-47.3c-0.1-0.4-0.1-1.2-0.6-1.2c-0.5-0.1-0.6,0.6-0.9,1c-6.8,11.1-13.6,22.3-20.4,33.4
		C54.6,340.7,52.7,343.3,51.5,346.1z"/>
	<path class="st2" d="M329,344.5c-1.1-0.1-1.9,0.5-2.8,0.9c-26.5,10.9-53,21.8-79.6,32.8c-5.1,2.1-10.2,4.2-15.3,6.3
		c-0.3,0.1-0.7,0.5-1,0.2s0-0.7,0.2-1.1c5.7-17.2,11.4-34.4,17.1-51.7c6.8-20.7,13.6-41.3,20.5-62c2-6.1,4-12.2,6-18.3
		c0.1-0.3,0.4-0.7,0.1-1s-0.6,0.1-0.9,0.3c-16.9,9.7-33.7,19.4-50.6,29.1c-17.3,10-34.6,19.9-52,29.9c-1,0.6-1.2,0.3-1.4-0.7
		c-2.9-23.6-5.9-47.2-8.8-70.7c-2.4-19.3-4.9-38.7-7.3-58c0-0.2-0.1-0.6-0.2-0.6c-0.4-0.1-0.5,0.3-0.6,0.6c-4,6.5-8,13.1-12,19.6
		c-17.4,28.4-34.7,56.8-52.1,85.3c-3.3,5.4-6.6,10.9-10,16.3c-0.2,0.3-0.2,0.8-0.7,0.7c-0.4-0.1-0.4-0.5-0.5-0.8
		c-6.6-20-13.2-39.9-19.9-59.9c-5.8-17.4-11.6-34.8-17.3-52.1c-0.6-1.8-1.2-3.6-1.8-5.3c0-1.9,0-3.9-0.1-5.8c0-0.8,0.3-1.1,1-1.3
		c9.8-2.2,19.6-3.8,29.6-4.8c10.9-1,21.9-1.3,32.9-0.9c22.2,1,43.9,4.8,65,11.6c37.5,12,70.6,31.6,99.4,58.4
		c28.6,26.6,50.4,58.1,65.6,94c0.4,0.9,0.4,1.6,0.1,2.5C330.6,340.1,329.8,342.3,329,344.5z"/>
	<path class="st3" d="M51.5,346.1c1.3-2.8,3.1-5.4,4.7-8c6.8-11.2,13.6-22.3,20.4-33.4c0.2-0.4,0.3-1.1,0.9-1
		c0.5,0.1,0.5,0.8,0.6,1.2c5.2,15.8,10.5,31.5,15.7,47.3c0.4,1.3,0.9,1.5,2.1,0.8c18.5-10.7,37-21.3,55.6-32
		c5.6-3.2,11.2-6.4,16.8-9.7c0.9-0.5,1.2-0.3,1.3,0.7c2.3,18.3,4.6,36.5,6.9,54.8c1.6,12.4,3.1,24.9,4.6,37.3
		c0.1,1.2,0.7,0.8,1.4,0.6c9.3-3.8,18.6-7.7,27.9-11.5c6.1-2.5,12.1-5,18.2-7.5c0.3-0.1,0.7-0.5,1.1-0.2c0.3,0.3,0,0.7-0.1,1.1
		c-5.4,16.2-10.7,32.5-16.1,48.7c-2.1,6.3-4.2,12.6-6.2,18.9c-0.2,0.5-0.2,0.9-0.3,1.4c-5.4,2.3-10.9,4.1-16.5,5.9
		c-0.9,0.3-1.7-0.3-2.6-0.6c0.4-0.2,0.4-0.6,0.4-1c-1.1-8.9-2.2-17.9-3.4-26.8c-1.1-8.7-2.2-17.4-3.2-26.1c-0.2-1.4-0.5-1.7-1.9-1.2
		c-16.6,6.9-33.1,13.7-49.7,20.5c-2.7,1.1-5.4,2-7.9,3.4c-1.1-0.8-2.3-1.5-3.4-2.3c0.2-0.4,0-0.7-0.1-1c-2.9-8.9-5.9-17.7-8.8-26.6
		c-4.9-14.9-9.9-29.8-14.8-44.7c-0.3-1-0.6-1.3-1.7-0.7c-7.2,4.2-14.4,8.3-21.6,12.4c-2.5,1.4-4.8,3-7.5,4.1c-3.8-6-7-12.3-10-18.8
		C53.1,350.2,52.3,348.1,51.5,346.1z"/>
	<path class="st4" d="M121.9,429.7c2.5-1.4,5.3-2.3,7.9-3.4c16.6-6.9,33.1-13.7,49.7-20.5c1.4-0.6,1.8-0.3,1.9,1.2
		c1,8.7,2.1,17.4,3.2,26.1c1.1,8.9,2.2,17.9,3.4,26.8c0.1,0.4,0,0.8-0.4,1c-9.2-2.9-18.2-6.4-27-10.2c-13.1-5.7-25.7-12.3-37.7-20.1
		C122.6,430.2,122.2,430,121.9,429.7z"/>
	<path class="st4" d="M64,371c2.7-1.1,5-2.7,7.5-4.1c7.2-4.1,14.4-8.3,21.6-12.4c1-0.6,1.3-0.2,1.7,0.7c4.9,14.9,9.9,29.8,14.8,44.7
		c2.9,8.9,5.9,17.7,8.8,26.6c0.1,0.3,0.3,0.7,0.1,1c-9.6-6.5-18.5-13.8-26.8-21.8c-10.4-10.1-19.4-21.2-27.1-33.5
		C64.4,371.7,64.2,371.4,64,371z"/>
	<path class="st0" d="M347.7,274.4c0,1.1-0.1,2.2-0.1,3.2c0-0.6,0-1.1,0-1.7c0-80.9,0-161.8,0-242.7c0-0.4,0-0.7,0-1.1
		c-0.1,0-0.1,0-0.2,0c0,0.3,0,0.6,0,0.9c0,81.7,0,163.3,0,245c-0.1,0.6,0.1,1.2,0.1,1.7c-0.1,7.6-0.7,15.1-1.7,22.6
		c-2.8,21.4-8.7,41.8-18.4,61.1c-14.3,28.1-35,50.5-60.7,68.4c-23.4,16.3-49.1,27.8-76.2,36.4c-0.4,0.1-0.7,0.2-1.1,0
		c-31.2-9.9-60.4-23.5-86.3-43.9c-38.2-30-61-69.2-68.5-117.3c-1.7-11.2-2.5-22.5-2.5-33.8c0-80.1,0-160.2,0-240.4
		c0-1.2,0.3-1.4,1.4-1.4c104.3,0,208.6,0,312.8,0c1.1,0,1.4,0.2,1.4,1.4 M118.5,427.4c1.1,0.8,2.3,1.5,3.4,2.3
		c0.4,0.3,0.7,0.5,1.1,0.8c12,7.8,24.6,14.4,37.7,20.1c8.8,3.8,17.8,7.3,27,10.2c0.8,0.3,1.7,0.9,2.6,0.6c5.6-1.8,11.1-3.6,16.5-5.9
		c0.3-0.1,0.7-0.2,1-0.3c12.8-5,25.2-10.7,37.2-17.5c23.8-13.6,44.7-30.5,61.3-52.5c9.5-12.5,17.1-26.1,22.8-40.8
		c0.8-2.2,1.6-4.4,2.5-6.5c0.4-0.9,0.3-1.6-0.1-2.5c-15.3-36-37-67.4-65.6-94C237.1,214.6,204,195,166.5,183
		c-21.1-6.8-42.8-10.6-65-11.6c-11-0.5-21.9-0.2-32.9,0.9c-10,1-19.8,2.6-29.6,4.8c-0.7,0.2-1.1,0.5-1,1.3c0.1,1.9,0,3.9,0.1,5.8
		c0,0.4,0,0.8,0,1.3c0,29.1,0,58.1,0,87.2c0,13.9,1.3,27.6,4,41.2c2.2,11,5.3,21.8,9.6,32.3c0.8,2,1.6,4.1,2.5,6
		c2.9,6.5,6.1,12.8,10,18.8c0.2,0.4,0.4,0.7,0.6,1.1c7.6,12.3,16.7,23.5,27.1,33.5C99.9,413.7,108.9,421,118.5,427.4z M73.1,77.6
		c0.4,0.5,0.6,0.7,0.8,1c8.3,10,16.5,20,24.8,30.1c7.7,9.4,15.4,18.7,23.1,28.1c1,1.2,2,2.2,3.7,2.3c1.1,0.1,1.4-0.2,1.4-1.4
		c0-21.1,0-42.2,0-63.3c0-4.9,1.2-6.5,5.6-7.7c3-0.8,3.2-1.1,3-4.2c0-0.5-0.2-0.7-0.7-0.7c-7.6,0-15.1,0-22.7,0
		c-0.3,0-0.6-0.1-0.7,0.4c-0.6,2.2,0.2,3.8,2.4,4.4c5.2,1.4,6.2,2.8,6.2,8.2c0,13.6,0,27.3,0,40.9c0,0.5,0,1,0,1.9
		c-1.1-1.4-2-2.4-2.8-3.5c-13.4-16.7-26.9-33.3-40.3-50c-1-1.3-2.2-2.3-3.9-2.3c-4.8,0-9.7,0-14.5,0c-0.3,0-0.7-0.1-0.7,0.5
		c0,2.8-0.5,3.6,2.7,4.4c0.7,0.2,1.4,0.4,2.1,0.7c2.2,0.8,3.5,2.4,3.7,4.8c0.1,0.9,0.1,1.8,0.1,2.7c0,16.2,0,32.4,0,48.6
		c0,1.5,0,3,0,4.5c-0.1,2.7-1.2,4.8-3.9,5.7c-1,0.4-2.1,0.6-3.1,1c-1.3,0.5-2.3,3.2-1.5,4.3c0.1,0.1,0.4,0.2,0.6,0.2
		c7.5,0,15,0,22.6,0c0.3,0,0.7,0,0.7-0.5c0-2.7,0.4-3.6-2.6-4.4c-4.8-1.2-5.9-2.7-5.9-7.5c-0.1-16.1,0-32.2,0-48.3
		C73.1,78.2,73.1,78.1,73.1,77.6z M147.2,139.1c4.4,0,8.8,0,13.2,0c0.4,0,1,0.3,1-0.5c0-2.6,0.5-3.1-2.5-4c-0.5-0.1-0.9-0.3-1.4-0.5
		c-4.4-1.7-5.5-4.1-3.7-8.4c1.6-4,3.3-8,5-12.1c0.2-0.5,0.4-0.8,1.1-0.8c8.7,0,17.3,0,26,0c0.5,0,0.8,0.1,1,0.6
		c2,4.7,4,9.3,5.9,14.1c1.4,3.6,0.6,5.2-3,6.6c-0.4,0.1-0.7,0.2-1.1,0.4c-2.6,0.8-2.8,1-2.7,3.7c0,0.6,0.2,0.8,0.8,0.8
		c8.9,0,17.8,0,26.6,0c0.3,0,0.6,0.1,0.7-0.2c0.8-1.4-0.2-4.1-1.8-4.3c-3.8-0.6-5.9-3.1-7.6-6.2c-1.7-3.3-2.9-6.8-4.3-10.2
		c-7.6-18.9-15.1-37.9-22.7-56.8c-0.2-0.4-0.2-1-1-1c-4-0.1-5.5,0.9-6.9,4.6c-8,20.2-16,40.5-24,60.7c-1.8,4.5-5.1,7.4-9.8,8.7
		c-3,0.8-3.1,0.9-3.1,3.9c0,0.8,0.3,1,1,1C138.4,139.1,142.8,139.1,147.2,139.1z M287.7,61.7c-10.7,0-21.4,0-32.1,0
		c-0.6,0-1.1-0.1-1.1,0.8c0,5.6,0,11.3,0,16.9c0,0.3-0.1,0.6,0.4,0.7c1.7,0.5,3.2-0.2,3.9-1.9c0.4-1.2,0.8-2.4,1.2-3.5
		c1.4-3.5,3.9-5.2,7.7-5.1c4.3,0.1,8.6,0.1,13,0c1.1,0,1.3,0.3,1.3,1.4c0,6.4,0,12.8,0,19.2c0,11.9,0,23.8,0,35.7
		c0,4.1-1.3,6.1-4.7,7.4c-0.8,0.3-1.7,0.6-2.6,0.8c-3,0.8-3.2,1.1-3.1,4.2c0,0.6,0.1,0.8,0.8,0.8c10.1,0,20.3,0,30.4,0
		c0.5,0,0.7-0.1,0.8-0.7c0.2-3-0.2-3.5-3-4.2c-0.6-0.2-1.2-0.3-1.8-0.5c-4-1.3-5.5-3.3-5.6-7.5c0-4.1,0-8.1,0-12.2
		c0-14.4,0-28.8,0-43.1c0-0.5-0.2-1.1,0.7-1.1c4.9,0,9.9,0,14.8,0.1c2.3,0,4.1,1.2,5.4,3.1c0.8,1.3,1.4,2.7,1.8,4.2
		c0.2,0.8,0.5,1.5,0.9,2.2c0.8,1.4,2.3,1,3.5,0.9c1-0.1,0.4-1.2,0.4-1.8c0.1-5.2,0-10.3,0.1-15.5c0-1-0.3-1.2-1.2-1.2
		C309,61.7,298.4,61.7,287.7,61.7z M234.7,139.1c4.5,0,9.1,0,13.6,0c0.4,0,0.8,0.2,1-0.3c0.8-1.4-0.2-3.8-1.8-4.3
		c-1.2-0.4-2.5-0.7-3.7-1.1c-2.3-0.9-3.6-2.5-3.7-5c0-0.8-0.1-1.6-0.1-2.4c0-17,0-34.1,0-51.1c0-0.9,0.1-1.8,0.1-2.7
		c0.2-2.2,1.3-3.7,3.3-4.6c0.9-0.4,1.9-0.7,2.9-0.9c2.9-0.8,3.2-1.2,3-4.2c0-0.6-0.2-0.7-0.8-0.7c-9.2,0-18.5,0-27.7,0
		c-0.3,0-0.8-0.1-0.8,0.5c0,2.7-0.4,3.6,2.7,4.4c0.5,0.1,0.9,0.2,1.4,0.4c3.8,1.1,5,2.6,5.2,6.6c0,0.6,0,1.1,0,1.7
		c0,16.8,0,33.6,0,50.5c0,1.1-0.1,2.2-0.2,3.2c-0.2,2-1.2,3.5-3.1,4.3c-1,0.4-2.1,0.8-3.2,1.1c-2.7,0.7-2.9,1-2.9,3.8
		c0,1,0.3,1.1,1.2,1.1C225.7,139.1,230.2,139.1,234.7,139.1z"/>
	<path class="st0" d="M173.4,78.8c2.3,6,4.6,11.9,6.9,17.9c1.2,3,2.4,6.1,3.6,9.1c0.3,0.7,0.3,1-0.6,1c-7,0-14,0-21,0
		c-0.6,0-1,0-0.6-0.8c3.8-8.9,7.6-17.9,11.4-26.8C173.2,79.1,173.3,79,173.4,78.8z"/>
</g>
</svg>
