<?xml version="1.0" encoding="utf-8"?>
<!-- Generator: Adobe Illustrator 22.0.1, SVG Export Plug-In . SVG Version: 6.00 Build 0)  -->
<svg version="1.1" xmlns="http://www.w3.org/2000/svg" xmlns:xlink="http://www.w3.org/1999/xlink" x="0px" y="0px"
	 viewBox="0 0 520 520" enable-background="new 0 0 520 520" xml:space="preserve">
<g id="neck">
	<path fill="#E1E1E1" d="M176.1,283.8c24.2,21.5,15.3,109-41.9,130.4C80.6,434.3,259,471.9,259,471.9s199.9-14.5,139.7-43.6
		s-98-123.6-87.1-153.2S151.9,262.2,176.1,283.8z"/>
</g>
<g id="swater">
	<path fill="#C4C4C4" d="M364.9,403.4c15.7-4.3,24.1-3.2,32.2,0.1c12,4.1,23.6,9.9,35.8,12.4c34.8,7,56.3,30.7,69.3,65
		c4.7,12.4,6.9,26,10.3,39c-163.9,0-327.8,0-491.8,0c-2.4,0-4.9,0.3-7.3-0.1c-2.1-0.4-4-1.7-5.9-2.6c7-37.1,19.8-70.5,51.3-90.5
		c7-4.5,15.4-6.4,23.3-9.3c15-5.5,39.5-6.3,54.5-11.6c2.3-0.8,4.7-1.3,7-1.9c2.5,1.8,4.9,3.5,7.4,5.3c4.5,2.7-0.6,0.8,3.9,3.5
		c7.3,3.2,14.5,6.3,21.8,9.5c5.3,1.8,10.6,3.5,15.8,5.3c10.1,2.2,20.3,4.5,30.4,6.7c33.8,4.9,65,4.8,90.8-6.6"/>
</g>
<g id="Layer_1">
	<g>
		<path fill="#E4E4E4" d="M188.9,330.1c-5.2-6.8-10.1-13.7-15.5-20.3c-8.9-10.7-13.7-22.7-13.1-36.7c1.3-2.8,2.6-5.6,4-8.3
			c1.6-3,4.1-5.7,4.7-8.9c4.5-21.9-5.8-41-11.7-61.6c-1.6,3.5-2.7,6-3.8,8.5c1.6-15,2.9-30.1,4.8-45.1c1.8-14.3,4.5-28.4,6.5-42.7
			c0.9-6.3,4.2-8.6,10.3-8.6c6.9,0,13.9-0.8,20.8-1.2c8-0.5,15.9-1,25.2-1.5c-4.4,10-8.3,18.8-12.2,27.6
			c12.5-2.7,41.3-12.7,49.8-19.8c0.5,0.2-0.5,0.5,0,0.7c-1.8,5.3,1.8,10.7,0,16c0.4,0.3-0.4,0.6,0,0.8c8.5-5.7-9.9-11.3,0-17.9
			c-0.7,5,0.7,8.3,0,12.9c23.5-9.8,43.1-23.9,64.8-37c0.9,7.9,1.6,14.3,2.4,20.7c0.3,0,0.7,0,1,0.1c1.1-2.7,2.3-5.3,3.9-9.1
			c2.1,6.1,3.7,10.9,5.6,16.5c1.3-2.5,2-3.8,3.4-6.7c0.5,4.4,0.8,7.1,1.1,10.2c1.6-1.1,2.8-1.9,4.7-3.2c9,19.6,10.5,40.1,11.5,60.7
			c0,6.4,0.1,12.8-0.1,19.2c-0.2,5.9,0.1,12.2-1.7,17.7c-4.1,12.7-5.1,25.6-5,38.9c0,5.5,1.2,10.1,5.7,13.5
			c0.9,21.5-6.9,39.3-22.6,53.9c-3.3,3-5.5,7.1-8.2,10.7c-6.2,4.8-12.4,9.5-18.6,14.3c-2.9,2.6-5.9,5.1-8.8,7.7
			c-2.2,1.5-4.4,2.9-6.6,4.4c-5.5,1.8-26.9,3.7-32.4,5.5c-12.9,1.7,12.8,1.8,0-1.1c-3.7-1.5,3.7-2.9,0-4.4c-2.2-1.5-38-2.9-40.2-4.4
			c-3.3-2.6-6.6-5.1-9.9-7.7c-5.1-3.2-10.3-6.4-15.3-9.8C191.6,333.5,190.3,331.7,188.9,330.1z"/>
		<path fill="#9E9E9E" d="M356.6,176.2c-1-20.6-2.6-41-11.5-60.7c-1.9,1.3-3.1,2.1-4.7,3.2c-0.3-3.1-0.6-5.9-1.1-10.2
			c-1.4,2.8-2.1,4.2-3.4,6.7c-1.9-5.6-3.5-10.4-5.6-16.5c-1.6,3.8-2.7,6.5-3.9,9.1c-0.3,0-0.7,0-1-0.1c-0.7-6.4-1.5-12.8-2.4-20.7
			c-21.7,13.1-40.8,27.2-64.3,37c0.7-4.6-0.7-7.9,0-12.9c-9.9,6.6,8.5,12.3,0,17.9c-0.4-0.3,0.4-0.6,0-0.8c1.8-5.3-1.8-10.7,0-16
			c-0.5-0.2,0.5-0.5,0-0.7c-8.5,7-37.7,17.1-50.2,19.8c3.9-8.8,7.8-17.6,12.2-27.6c-9.2,0.6-17.2,1.1-25.2,1.5
			c-6.9,0.4-13.9,1.1-20.8,1.2c-6.1,0-9.5,2.3-10.3,8.6c-2,14.2-4.6,28.4-6.5,42.7c-1.9,15-3.2,30-4.8,45.1
			c-7-6.2-10.4-14.4-13.2-23c0.7-9.4,1.8-18.9,1.9-28.3c0.1-9.7-1.1-19.3-1.1-29c0.1-11.6,0.5-23.3,1.7-34.9
			c0.8-8.1,4.3-15.3,10.3-21.3c5-5.1,6-11.2,3.3-16c8.2-7.1,17.1-13.6,27.4-17.5c21.1-8.1,52.8-14.1,75.3-16.6
			c19-2.1,27,0.4,44.1,9.1c5.7,2.9,11.4,5.8,17.1,8.8c2.7,1.4,5.1,1.3,8.2,1.2c4.3-0.2,9.1,3.6,13.1,6.5c3,2.2,4.8,7.5,7.7,8
			c4.5,0.8,6.2,4.9,10.4,5.9c9,2.2,15.2,8.3,18.9,17.6c-1.5,0.1-2.8,0.2-4.1,0.2c0.1,0.7,0.1,1.3,0.3,1.7c4.9,8.6,6.3,17.9,6.7,27.8
			c0.6,15.4,1.6,30.6-2,45.8c-2.1,8.9-3.9,17.8-5.9,26.8c-2.9,8.8-6.5,17.1-13.2,23.5c-0.6-0.3-1.2-0.5-1.8-0.8
			C357.7,190.9,357.2,183.6,356.6,176.2z"/>
		<path fill="#E4E4E4" d="M355.6,176.2c0.5,7.3,1,14.6,1.5,22c0.6,0.3,1.2,0.5,1.8,0.8c6.7-6.4,10.3-14.8,13.2-23.5
			c4-3.2,7.5-1.9,9.7,1.9c2.3,4.1,3.8,8.7,5.3,13.1c4.2,12.4,4,24.6-1.2,36.9c-2.3,5.3-2.8,11.3-4.3,17c-1.1,4.1-2,8.2-3.6,12.1
			c-3.6,9-10.2,12.2-19.8,10c-1.2-0.3-2.5-0.6-3.7-0.9c-4.5-3.4-5.6-8-5.7-13.5c-0.1-13.2,0.9-26.1,5-38.9
			c1.8-5.5,1.4-11.8,1.7-17.7C355.7,189,355.5,182.6,355.6,176.2z"/>
		<path fill="#E4E4E4" d="M142,179.8c2.8,8.6,6.2,16.8,13.2,23c1.1-2.5,2.3-5,3.8-8.5c5.9,20.6,16.2,39.7,11.7,61.6
			c-0.6,3.2-3.2,5.9-4.7,8.9c-1.4,2.7-2.7,5.5-4,8.3c-0.8-4-2.6-6.3-7.2-6.3c-5.7,0-9.6-3.4-11.8-8.4c-1.4-3.1-2.7-6.4-3.6-9.7
			c-2.8-10.4-5.3-20.8-8.2-31.2c-3.1-11,1.4-33.8,8.9-41.9C140.7,177.1,141.4,178.5,142,179.8z"/>
	</g>
</g>
</svg>
