<?xml version="1.0" encoding="utf-8"?>
<!-- Generator: Adobe Illustrator 22.0.1, SVG Export Plug-In . SVG Version: 6.00 Build 0)  -->
<svg version="1.1" id="Layer_1" xmlns="http://www.w3.org/2000/svg" xmlns:xlink="http://www.w3.org/1999/xlink" x="0px" y="0px"
	 viewBox="0 0 520 520" style="enable-background:new 0 0 520 520;" xml:space="preserve">
<style type="text/css">
	.st0{fill:#DCDCDC;}
	.st1{fill:#B2B2B2;}
	.st2{fill:#9D9D9D;}
	.st3{fill:#C5C5C5;}
</style>
<g>
	<path class="st0" d="M200.2,351c3.9-9.4,3.5-17.3-7.5-21.4c2.3-0.7,5.7-1,2.6-4.4c-23.5-25.9-24.3-58.6-27.1-90.5
		c-1.2-13.8,5.4-24.1,16.7-31.9c9.8-6.8,20.5-11.7,31.5-16c41.9-16.3,80.4-37.7,109.5-73.2c1.3-1.6,2.9-2.9,5.4-2.1
		c3.6,2.8,4.8,7.2,6.5,11.3c19.9,48.1,20.7,97.4,10,147.5c-4.5,21-11.2,40.9-27.5,56.1c-0.8,1.7-1.7,3.4-2.5,5.1
		c-5.3,0.2-8.8,3.5-12.8,6.4c-22.8,16.3-47,24.5-74.2,11.3c-7.8-3.8-15-8.9-22.5-13.4c6.5,19.1,20.8,29.9,37.7,38.2
		c23.1,11.5,47.4,9.6,71.8,6.5c-2.1,31.8-7.6,63-18.6,93c-5.7,15.6-12,31-18.1,46.5c-13.9,0-27.8,0-41.6,0c-1.2-3-2.3-6.1-3.6-9
		c-21.7-47-34.6-96-33.2-148.2C202.6,358.7,202.3,354.6,200.2,351z"/>
	<path class="st1" d="M281,520c6-15.5,12.4-30.9,18.1-46.5c11-30,16.4-61.2,18.6-93c1-9.7-1.9-19.8,2.4-29.3
		c8.9,6.6,17.3,14,23.1,23.4c6.5,10.7,15.8,14.9,27.8,17.3c37.1,7.4,72.3,19.7,104.2,40.7c28.9,19.1,45.2,44.1,40.9,80
		c-0.3,2.4,0,4.9,0.1,7.3C437.7,520,359.4,520,281,520z"/>
	<path class="st1" d="M200.2,351c2.1,3.6,2.5,7.7,2.4,11.8c-1.4,52.2,11.5,101.2,33.2,148.2c1.4,2.9,2.4,6,3.6,9
		c-78.4,0-156.7,0-235.1,0c0-0.8,0.2-1.6,0.1-2.4C-3,465.1,28.7,438.7,70,418.1c26.9-13.4,55.4-21.2,84.5-27.4
		c9.4-2,16.4-5.9,21.4-14.2C182.1,366.3,190.7,358.2,200.2,351z"/>
	<path class="st2" d="M320.2,326.4c16.3-15.2,23.1-35.1,27.5-56.1c10.7-50.1,9.9-99.5-10-147.5c-1.7-4.1-2.9-8.5-6.5-11.3
		c-2.6-0.9-4.1,0.5-5.4,2.1c-29.1,35.5-67.6,56.9-109.5,73.2c-11,4.3-21.7,9.2-31.5,16c-11.3,7.8-17.9,18.1-16.7,31.9
		c2.9,32,3.7,64.7,27.1,90.5c3.1,3.4-0.4,3.8-2.6,4.4c-15.8-2-31.2-6.1-46.4-10.8c-8.5-2.6-13.7-6.5-10.3-16.7
		c1.7-5.3,1.8-11.2-0.4-17.4c-9.8,0.7-15.4,10.6-24.5,11.1c-2.3-1-2.6-2.6-2.4-4.2c6.7-37.5,2.9-74.5-3.4-111.8
		c-10.9-64.9,14.3-113.1,72.9-142.8c37.4-19,76.5-21.9,116.4-9.5c17,5.3,32.7,13.2,40.3,31.1c1.4,3.3,3.9,5.2,7.4,5.6
		c17.5,2.4,29.6,13.1,39.4,26.6c28.1,38.5,36.3,83,37.8,129.4c0.1,3.1-1.1,6.3-1.9,10.4c-7.9-3.6-10.7-13.1-21.2-14.7
		c-0.5,15,3.2,29.5-0.1,43.8c-0.8,3.5-0.7,7.3-1.4,10.9c-7.6,39.2-27.7,56.4-68,58C324.9,328.5,322.6,327.1,320.2,326.4z"/>
	<path class="st3" d="M320.1,351.2c-4.3,9.5-1.5,19.5-2.4,29.3c-24.4,3.1-48.6,4.9-71.8-6.5c-16.8-8.3-31.1-19.2-37.7-38.2
		c7.5,4.5,14.6,9.6,22.5,13.4c27.2,13.1,51.4,5,74.2-11.3c4-2.9,7.6-6.2,12.8-6.4C317.9,338.1,317.2,344.9,320.1,351.2z"/>
</g>
</svg>
